<svg id="Layer_1" data-name="Layer 1" xmlns="http://www.w3.org/2000/svg" viewBox="0 0 400 270"><defs><style>.cls-1{fill:#f5f5f5;}.cls-2{fill:#1f305e;}</style></defs><title>braeme</title><rect class="cls-1" width="400" height="270"/><path class="cls-2" d="M193.37,174.3h0a57.66,57.66,0,0,1-12-.6V136.63h12v-9.51h-12V95.83a44.63,44.63,0,0,1,12-1V85.24h0a123.77,123.77,0,0,0-24.07,2.05v96.28a151.35,151.35,0,0,0,19.5,1.2l4.57-.84Z"/><path class="cls-2" d="M210.58,131.09h0a23.21,23.21,0,0,0,16.49-21.78,20.36,20.36,0,0,0-8.06-17,30.19,30.19,0,0,0-13.6-6v11a13.71,13.71,0,0,1,9.51,14,15.43,15.43,0,0,1-9.51,13.6v13.84a17.81,17.81,0,0,1,0,33.69V182.6A34,34,0,0,0,223,175a26.27,26.27,0,0,0,7.7-19.5A25.16,25.16,0,0,0,210.58,131.09Z"/></svg>