<svg id="Layer_1" data-name="Layer 1" xmlns="http://www.w3.org/2000/svg" viewBox="0 0 5.1 8.22"><title>logo</title><path d="M2,7.4h0A5.2,5.2,0,0,1,1,7.35V4.27H2V3.48H1V.88A4,4,0,0,1,2,.8V0h0A9.84,9.84,0,0,0,0,.17v8a11.75,11.75,0,0,0,1.62.1L2,8.2Z"/><path d="M3.43,3.81v0A1.93,1.93,0,0,0,4.8,2,1.69,1.69,0,0,0,4.13.59,2.6,2.6,0,0,0,3,.09V1a1.15,1.15,0,0,1,.79,1.16A1.26,1.26,0,0,1,3,3.29V4.44A1.39,1.39,0,0,1,4,5.83,1.4,1.4,0,0,1,3,7.24v.85a2.81,2.81,0,0,0,1.46-.63A2.18,2.18,0,0,0,5.1,5.84,2.09,2.09,0,0,0,3.43,3.81Z"/></svg>