<svg id="Layer_1" data-name="Layer 1" xmlns="http://www.w3.org/2000/svg" viewBox="0 0 1147.3 892.98"><title>elliot-logo</title><path d="M-694.14-794.23l25.86-8.46c2.65-.87,6.29-1.37,7.58,1.11.66,1.29.31,2.85-.06,4.25Q-666.94-774-674.65-751a7.68,7.68,0,0,1-2.32,4c-4.39,3.27-10.67-4.46-15.54-1.95-4.11,2.11-2.16,8.43.77,12,4.89,6,13,11.16,20,7.78,3.93-1.9,6.22-6,8-10a117.32,117.32,0,0,0,9.33-31.36c1-6.85,1.49-13.95,4.49-20.19,6.4-13.33,22-18.89,36.09-23.52a961,961,0,0,0,125.5-51.48q30.88-15.29,60.63-32.76c18.2-10.7,44.62-22.27,58.58-38.08-10.52-4.83-24.31,4.24-33.1,9.69a863.35,863.35,0,0,1-227.14,99c-2.85.78-6.3,1.4-8.43-.65s-1.68-5.24-1.17-8c5.23-28.7,11-59.12.49-86.34-1-2.61-2.26-5.29-4.52-6.95-8.37-6.11-10.54,5.89-9.53,11.38a216.82,216.82,0,0,1-1.65,86c-.66,3-1.5,6.09-3.78,8.09-2,1.78-4.85,2.32-7.52,2.78-12.71,2.22-51.73,3.4-49.34,24.39.6,5.3,3.72,5,7.13,9.39" transform="translate(1431.17 1179.03)"/><path d="M-770.9-759.6c-3.39,4-4.43,9.49-5.35,14.68l-3.61,20.35c-2.17,12.18-3.74,26.44,4.89,35.3s24.13,7.36,33.91-.22,15-19.53,19.11-31.22c3.61-10.41,6.63-21.4,5.31-32.35a19.18,19.18,0,0,0-2.12-7.24C-726.92-774.46-761.56-770.7-770.9-759.6ZM-747-753c4.1-.58,8.22-.23,10.89,1.36,11.3,6.69,1.49,29-3.09,37.16a33.21,33.21,0,0,1-7.44,9.54,15.31,15.31,0,0,1-11.23,3.73,7.68,7.68,0,0,1-5.89-3.48c-.93-1.67-.92-3.68-.89-5.59.14-9.69.29-19.44,2.21-28.94.6-2.93,1.41-5.92,3.3-8.23C-756.82-750.27-751.93-752.29-747-753Z" transform="translate(1431.17 1179.03)"/><path d="M-899-746.87l-3.35,53.59c-.52,8.34-1,17.09,2.58,24.65,6,12.86,31.18,14.52,14.43-.31-6-5.3-5.65-14.55-4.84-22.49q4.88-48.27,9.77-96.53c1.61-15.87,4.75-32.35,4.9-48.29,0-4.92-1.89-29.94-10.82-21.57s-7.06,21.3-7.75,32.35l-2.75,44.07Z" transform="translate(1431.17 1179.03)"/><path d="M-937.56-639a5.34,5.34,0,0,0-2-2.61c-1.59-1.08-3.61-1.23-5.36-2-2.34-1-4-3.09-5.52-5.17-15.24-21.45-14.87-49.89-13.9-76.18q2.63-70.24,5.23-140.5c.12-3.38.22-6.9-1.15-10-5.22-11.74-13.74-.28-14.36,7.19a1221.85,1221.85,0,0,0-.85,190.83c.65,8.71,1.6,18,7,24.84,1.92,2.42,4.35,4.48,5.81,7.21,4.17,7.8-4.11,10-8.07,14.75-5.29,6.31-10.82,14.19-15.52,21.07-18.84,27.53-46.84,50.81-69.92,74.8-7,7.25-14.08,14.6-22.9,19.42-24.42,13.35-57.18,2.82-74.38-19.07s-20.78-52.05-16-79.46c3.18-18,10.12-33.09,22.44-46.62,11.46-12.58,25.2-22.79,38.39-33.44a481.73,481.73,0,0,0,54.86-51.53c8.47-9.38,16.59-19.24,22.45-30.45,3.63-7,5.83-16.73-.27-21.68a456,456,0,0,1-118.78,116.46c-2.14-2.36-1.47-6-.61-9.12,10.6-37.84,29.66-74,31.09-113.28.18-5.13.23-10.75,3.55-14.67,1.75-2.06,4.21-3.37,6.61-4.62q46.28-24.11,94.45-44.27c-5.13-4.23-12.27-5.38-18.87-4.55s-12.84,3.42-19,6l-77.2,32.26c-3.79,1.59-7.66,3.22-10.75,6s-5.3,6.78-4.75,10.85c.61,4.56,4.33,8,7.48,11.31,8,8.54,4.73,19.21,1.12,29.07q-8.57,23.37-14.92,47.46c-4.18,15.84-8.93,31.34-13.19,47.17-6.63,24.57-12.29,49.39-17.18,74.36-4.66,23.8-4.62,50.22,9.06,70.25,6.51,9.53,15.66,16.93,25.08,23.59a103.14,103.14,0,0,0,16.81,10.09c61.06,27.57,119.87-56.11,153-95.08,8.32-9.8,17-19.78,28.53-25.56,3.74-1.87,7.86-3.38,10.6-6.54A9,9,0,0,0-937.56-639Z" transform="translate(1431.17 1179.03)"/><path d="M-852.71-673.07c-.19,1-.57,2.25-.18,3.07,2.26,4.68,13.91,9.77,18.68,6.45,10.61-7.38.53-63.28-9.45-54.37" transform="translate(1431.17 1179.03)"/><path d="M-310-882.85c-8.09,23.14-38.69,81.32-52.93,101.28A1151.33,1151.33,0,0,1-709.09-462.7c-47.09,28.11-95,54.84-144.39,78.75-33,16-65.47,33.44-99.94,46.22a582.58,582.58,0,0,1-179,36.07c-56.44,2.24-124.79.25-174.91-27.94A211.51,211.51,0,0,1-1389-413.14c-77.91-144.67-3.57-323.74,96.73-436.21q13.31-14.92,27.51-29c71.77-71.15,157.77-126.15,245-177.22,58.12-34,117.4-66.74,180.56-90.14,28-10.38,57.89-19,87.45-14.64,6.51,1,13.09,2.61,18.5,6.37,15.23,10.6,15.54,32.61,14.28,51.12,15.63-12.08,16.42-37.39,4.73-53.32s-32.51-23.11-52.27-22.84-38.81,7-57.22,14.12c-75.21,29.27-146.51,67.76-216,108.8-80.59,47.59-159.61,99.19-227,164.13s-123.08,144.25-149.08,234.16c-21.86,75.57-21.4,159.16,8.1,232.65,27.2,67.74,91.12,110.9,160.36,128.74a333.36,333.36,0,0,0,81.56,10.36c85,.38,179.06-22.92,256.23-57.7C-833.66-378-759.5-411.12-688.89-455.91A1277.45,1277.45,0,0,0-486.46-614.53q19.8-19.1,39-38.85C-398.2-704-352.58-759-319.3-821.62c16-30.13,29.09-63.4,33.67-97,3.2-23.4,2.26-46.95-4.69-69.68-15.47-50.57-59.22-89-108.38-108.51S-502.07-1119-554.89-1116.4c-125.65,6.16-249.6,41.33-360.63,100.47-8.27,4.4-17.56,10.65-17.66,20,80.35-39.75,162.53-77.42,249.73-98.24s180.44-24,265.39,4.62c34.14,11.51,67.33,28.6,91.39,55.42s37.82,64.54,29.69,99.64" transform="translate(1431.17 1179.03)"/><path d="M-823.64-763.44a9.36,9.36,0,0,0,1.46,1.92,9.7,9.7,0,0,0,11.68,1.34,3.09,3.09,0,0,0,1.43-1.6c.43-1.44-.9-2.76-1.36-4.18a7,7,0,0,1,.49-4.5,9.8,9.8,0,0,0,.92-4.48c-1-7.73-12.71-2.39-14.86,1.68A10.39,10.39,0,0,0-823.64-763.44Z" transform="translate(1431.17 1179.03)"/></svg>